<?xml version="1.0" standalone="no"?>
<!DOCTYPE svg PUBLIC "-//W3C//DTD SVG 20010904//EN"
 "http://www.w3.org/TR/2001/REC-SVG-20010904/DTD/svg10.dtd">
<svg version="1.0" xmlns="http://www.w3.org/2000/svg"
 width="1280.000000pt" height="1801.000000pt" viewBox="0 0 1280.000000 1801.000000"
 preserveAspectRatio="xMidYMid meet">
<metadata>
Created by potrace 1.16, written by Peter Selinger 2001-2019
</metadata>
<g transform="translate(0.000000,1801.000000) scale(0.100000,-0.100000)"
fill="#000000" stroke="none">
<path d="M782 17748 c-155 -185 -208 -255 -201 -264 6 -7 2507 -2100 5559
-4651 3052 -2550 5546 -4641 5542 -4644 -4 -4 -2626 -1624 -5827 -3599 -3201
-1976 -5825 -3598 -5832 -3604 -9 -8 28 -77 160 -289 95 -154 176 -279 180
-279 10 0 12066 7442 12072 7452 3 4 -33 70 -79 145 l-85 137 106 126 105 126
-24 21 c-119 102 -11451 9571 -11457 9573 -5 1 -103 -111 -219 -250z"/>
</g>
</svg>
